<mxfile host="app.diagrams.net" agent="Mozilla/5.0 (Windows NT 10.0; Win64; x64) AppleWebKit/537.36 (KHTML, like Gecko) Chrome/131.0.0.0 Safari/537.36 Edg/131.0.0.0" version="25.0.3">
  <diagram name="Page-1" id="jssvtks0TNyN7_167iyE">
    <mxGraphModel dx="1042" dy="535" grid="1" gridSize="10" guides="1" tooltips="1" connect="1" arrows="1" fold="1" page="1" pageScale="1" pageWidth="850" pageHeight="1100" math="0" shadow="0">
      <root>
        <mxCell id="0" />
        <mxCell id="1" parent="0" />
        <mxCell id="mcatqLDCLFWA8lfJ1xL1-11" style="edgeStyle=orthogonalEdgeStyle;rounded=0;orthogonalLoop=1;jettySize=auto;html=1;entryX=0.5;entryY=0;entryDx=0;entryDy=0;" edge="1" parent="1" source="mcatqLDCLFWA8lfJ1xL1-1" target="mcatqLDCLFWA8lfJ1xL1-3">
          <mxGeometry relative="1" as="geometry" />
        </mxCell>
        <mxCell id="mcatqLDCLFWA8lfJ1xL1-1" value="" style="ellipse;whiteSpace=wrap;html=1;fillColor=#000000;" vertex="1" parent="1">
          <mxGeometry x="230" width="120" height="80" as="geometry" />
        </mxCell>
        <mxCell id="mcatqLDCLFWA8lfJ1xL1-2" value="Start" style="text;strokeColor=none;align=center;fillColor=none;html=1;verticalAlign=middle;whiteSpace=wrap;rounded=0;fontColor=#FFFFFF;" vertex="1" parent="1">
          <mxGeometry x="260" y="25" width="60" height="30" as="geometry" />
        </mxCell>
        <mxCell id="mcatqLDCLFWA8lfJ1xL1-3" value="" style="shape=parallelogram;perimeter=parallelogramPerimeter;whiteSpace=wrap;html=1;fixedSize=1;fillColor=#000000;" vertex="1" parent="1">
          <mxGeometry x="230" y="120" width="120" height="60" as="geometry" />
        </mxCell>
        <mxCell id="mcatqLDCLFWA8lfJ1xL1-4" value="Nhập n có 3 chữ số" style="text;strokeColor=none;align=center;fillColor=none;html=1;verticalAlign=middle;whiteSpace=wrap;rounded=0;fontColor=#FFFFFF;" vertex="1" parent="1">
          <mxGeometry x="260" y="135" width="60" height="30" as="geometry" />
        </mxCell>
        <mxCell id="mcatqLDCLFWA8lfJ1xL1-5" value="" style="rounded=0;whiteSpace=wrap;html=1;fillColor=#000000;" vertex="1" parent="1">
          <mxGeometry x="220" y="240" width="230" height="60" as="geometry" />
        </mxCell>
        <mxCell id="mcatqLDCLFWA8lfJ1xL1-13" style="edgeStyle=orthogonalEdgeStyle;rounded=0;orthogonalLoop=1;jettySize=auto;html=1;" edge="1" parent="1" source="mcatqLDCLFWA8lfJ1xL1-6" target="mcatqLDCLFWA8lfJ1xL1-8">
          <mxGeometry relative="1" as="geometry" />
        </mxCell>
        <mxCell id="mcatqLDCLFWA8lfJ1xL1-6" value="char1 = quotient(n/100)&lt;br&gt;char2 = quotient(mod(n/100) / 10)&lt;br&gt;char3 = mod(mod(n/100) / 10)" style="text;strokeColor=none;align=center;fillColor=none;html=1;verticalAlign=middle;whiteSpace=wrap;rounded=0;fontColor=#FFFFFF;" vertex="1" parent="1">
          <mxGeometry x="220" y="240" width="230" height="60" as="geometry" />
        </mxCell>
        <mxCell id="mcatqLDCLFWA8lfJ1xL1-7" value="" style="rounded=0;whiteSpace=wrap;html=1;fillColor=#000000;" vertex="1" parent="1">
          <mxGeometry x="220" y="340" width="230" height="60" as="geometry" />
        </mxCell>
        <mxCell id="mcatqLDCLFWA8lfJ1xL1-8" value="In (char3*100 + char2*10 +char1)" style="text;strokeColor=none;align=center;fillColor=none;html=1;verticalAlign=middle;whiteSpace=wrap;rounded=0;fontColor=#FFFFFF;" vertex="1" parent="1">
          <mxGeometry x="220" y="340" width="230" height="60" as="geometry" />
        </mxCell>
        <mxCell id="mcatqLDCLFWA8lfJ1xL1-9" value="" style="ellipse;whiteSpace=wrap;html=1;fillColor=#000000;" vertex="1" parent="1">
          <mxGeometry x="230" y="430" width="120" height="80" as="geometry" />
        </mxCell>
        <mxCell id="mcatqLDCLFWA8lfJ1xL1-10" value="End" style="text;strokeColor=none;align=center;fillColor=none;html=1;verticalAlign=middle;whiteSpace=wrap;rounded=0;fontColor=#FFFFFF;" vertex="1" parent="1">
          <mxGeometry x="260" y="455" width="60" height="30" as="geometry" />
        </mxCell>
        <mxCell id="mcatqLDCLFWA8lfJ1xL1-12" style="edgeStyle=orthogonalEdgeStyle;rounded=0;orthogonalLoop=1;jettySize=auto;html=1;entryX=0.304;entryY=0.167;entryDx=0;entryDy=0;entryPerimeter=0;" edge="1" parent="1" source="mcatqLDCLFWA8lfJ1xL1-4" target="mcatqLDCLFWA8lfJ1xL1-6">
          <mxGeometry relative="1" as="geometry" />
        </mxCell>
        <mxCell id="mcatqLDCLFWA8lfJ1xL1-14" style="edgeStyle=orthogonalEdgeStyle;rounded=0;orthogonalLoop=1;jettySize=auto;html=1;entryX=0.875;entryY=0.5;entryDx=0;entryDy=0;entryPerimeter=0;" edge="1" parent="1" source="mcatqLDCLFWA8lfJ1xL1-8" target="mcatqLDCLFWA8lfJ1xL1-9">
          <mxGeometry relative="1" as="geometry" />
        </mxCell>
      </root>
    </mxGraphModel>
  </diagram>
</mxfile>
